<svg xmlns="http://www.w3.org/2000/svg" xmlns:xlink="http://www.w3.org/1999/xlink" width="500" zoomAndPan="magnify" viewBox="0 0 375 374.999991" height="500" preserveAspectRatio="xMidYMid meet" version="1.0"><defs><g/><clipPath id="c7a1f377be"><path d="M 176.6875 156.644531 L 246.191406 156.644531 L 246.191406 226.148438 L 176.6875 226.148438 Z M 176.6875 156.644531 " clip-rule="nonzero"/></clipPath><clipPath id="6e9c36b9e9"><path d="M 211.4375 156.644531 C 192.246094 156.644531 176.6875 172.203125 176.6875 191.394531 C 176.6875 210.589844 192.246094 226.148438 211.4375 226.148438 C 230.632812 226.148438 246.191406 210.589844 246.191406 191.394531 C 246.191406 172.203125 230.632812 156.644531 211.4375 156.644531 Z M 211.4375 156.644531 " clip-rule="nonzero"/></clipPath><clipPath id="6c5faa5585"><path d="M 206 209 L 216 209 L 216 217.382812 L 206 217.382812 Z M 206 209 " clip-rule="nonzero"/></clipPath><clipPath id="a792694408"><path d="M 185 165.496094 L 238 165.496094 L 238 216 L 185 216 Z M 185 165.496094 " clip-rule="nonzero"/></clipPath><clipPath id="21c563b2b4"><path d="M 227 126 L 249 126 L 249 156 L 227 156 Z M 227 126 " clip-rule="nonzero"/></clipPath><clipPath id="8a080f0885"><path d="M 226.054688 127.433594 L 246.476562 125.5 L 249.203125 154.332031 L 228.78125 156.261719 Z M 226.054688 127.433594 " clip-rule="nonzero"/></clipPath><clipPath id="d65119d8f4"><path d="M 226.054688 127.433594 L 246.476562 125.5 L 249.203125 154.332031 L 228.78125 156.261719 Z M 226.054688 127.433594 " clip-rule="nonzero"/></clipPath></defs><g fill="#f24405" fill-opacity="1"><g transform="translate(51.461049, 228.344751)"><g><path d="M 49.21875 -74.390625 C 55.71875 -74.390625 59.535156 -72.597656 60.671875 -69.015625 C 61.234375 -67.222656 61.515625 -64.863281 61.515625 -61.9375 C 61.515625 -59.019531 61.207031 -56.6875 60.59375 -54.9375 C 59.988281 -53.195312 59.023438 -51.945312 57.703125 -51.1875 C 55.722656 -50.0625 52.847656 -49.5 49.078125 -49.5 L 40.015625 -50.0625 L 40.015625 -12.15625 C 40.015625 -8.570312 39.566406 -5.910156 38.671875 -4.171875 C 37.773438 -2.429688 36.40625 -1.273438 34.5625 -0.703125 C 32.726562 -0.140625 30.347656 0.140625 27.421875 0.140625 C 24.503906 0.140625 22.171875 -0.164062 20.421875 -0.78125 C 18.679688 -1.394531 17.4375 -2.382812 16.6875 -3.75 C 15.9375 -5.113281 15.488281 -6.359375 15.34375 -7.484375 C 15.195312 -8.617188 15.125 -10.269531 15.125 -12.4375 L 15.125 -49.921875 L 10.046875 -49.921875 C 7.585938 -50.109375 5.84375 -50.675781 4.8125 -51.625 C 3.019531 -53.414062 2.125 -56.851562 2.125 -61.9375 C 2.125 -69.675781 4.90625 -73.546875 10.46875 -73.546875 L 15.125 -73.546875 L 15.125 -81.03125 C 15.125 -88.289062 17.71875 -94.867188 22.90625 -100.765625 C 28.09375 -106.660156 35.585938 -109.609375 45.390625 -109.609375 C 47.566406 -109.609375 49.195312 -109.535156 50.28125 -109.390625 C 51.363281 -109.242188 52.609375 -108.796875 54.015625 -108.046875 C 56.566406 -106.816406 57.84375 -103.1875 57.84375 -97.15625 C 57.84375 -92.632812 57.039062 -89.382812 55.4375 -87.40625 C 54.113281 -85.894531 52.039062 -85.046875 49.21875 -84.859375 C 48.363281 -84.859375 47.039062 -84.859375 45.25 -84.859375 C 41.757812 -84.859375 40.015625 -83.675781 40.015625 -81.3125 L 40.015625 -73.546875 Z M 49.21875 -74.390625 "/></g></g></g><g fill="#f24405" fill-opacity="1"><g transform="translate(99.818643, 228.344751)"><g><path d="M 3.53125 -37.1875 C 3.53125 -48.507812 7.488281 -57.84375 15.40625 -65.1875 C 23.332031 -72.539062 32.382812 -76.21875 42.5625 -76.21875 C 52.75 -76.21875 61.753906 -72.566406 69.578125 -65.265625 C 77.398438 -57.960938 81.3125 -48.648438 81.3125 -37.328125 C 81.3125 -29.503906 79.285156 -22.550781 75.234375 -16.46875 C 71.179688 -10.394531 66.253906 -5.921875 60.453125 -3.046875 C 54.660156 -0.171875 48.648438 1.265625 42.421875 1.265625 C 36.203125 1.265625 30.171875 -0.265625 24.328125 -3.328125 C 18.484375 -6.390625 13.554688 -10.910156 9.546875 -16.890625 C 5.535156 -22.878906 3.53125 -29.644531 3.53125 -37.1875 Z M 33.09375 -27.078125 C 36.113281 -24.773438 39.175781 -23.625 42.28125 -23.625 C 45.394531 -23.625 48.503906 -24.800781 51.609375 -27.15625 C 54.722656 -29.507812 56.28125 -32.992188 56.28125 -37.609375 C 56.28125 -42.234375 54.816406 -45.675781 51.890625 -47.9375 C 48.972656 -50.207031 45.816406 -51.34375 42.421875 -51.34375 C 39.023438 -51.34375 35.863281 -50.160156 32.9375 -47.796875 C 30.019531 -45.441406 28.5625 -41.976562 28.5625 -37.40625 C 28.5625 -32.832031 30.070312 -29.390625 33.09375 -27.078125 Z M 33.09375 -27.078125 "/></g></g></g><g fill="#f24405" fill-opacity="1"><g transform="translate(169.386823, 228.344751)"><g><path d="M 3.53125 -37.1875 C 3.53125 -48.507812 7.488281 -57.84375 15.40625 -65.1875 C 23.332031 -72.539062 32.382812 -76.21875 42.5625 -76.21875 C 52.75 -76.21875 61.753906 -72.566406 69.578125 -65.265625 C 77.398438 -57.960938 81.3125 -48.648438 81.3125 -37.328125 C 81.3125 -29.503906 79.285156 -22.550781 75.234375 -16.46875 C 71.179688 -10.394531 66.253906 -5.921875 60.453125 -3.046875 C 54.660156 -0.171875 48.648438 1.265625 42.421875 1.265625 C 36.203125 1.265625 30.171875 -0.265625 24.328125 -3.328125 C 18.484375 -6.390625 13.554688 -10.910156 9.546875 -16.890625 C 5.535156 -22.878906 3.53125 -29.644531 3.53125 -37.1875 Z M 33.09375 -27.078125 C 36.113281 -24.773438 39.175781 -23.625 42.28125 -23.625 C 45.394531 -23.625 48.503906 -24.800781 51.609375 -27.15625 C 54.722656 -29.507812 56.28125 -32.992188 56.28125 -37.609375 C 56.28125 -42.234375 54.816406 -45.675781 51.890625 -47.9375 C 48.972656 -50.207031 45.816406 -51.34375 42.421875 -51.34375 C 39.023438 -51.34375 35.863281 -50.160156 32.9375 -47.796875 C 30.019531 -45.441406 28.5625 -41.976562 28.5625 -37.40625 C 28.5625 -32.832031 30.070312 -29.390625 33.09375 -27.078125 Z M 33.09375 -27.078125 "/></g></g></g><g fill="#f24405" fill-opacity="1"><g transform="translate(238.955003, 228.344751)"><g><path d="M 55.640625 -105.5625 C 56.347656 -106.9375 57.597656 -107.90625 59.390625 -108.46875 C 61.179688 -109.03125 63.5625 -109.3125 66.53125 -109.3125 C 69.507812 -109.3125 71.894531 -109.03125 73.6875 -108.46875 C 75.476562 -107.90625 76.722656 -106.914062 77.421875 -105.5 C 78.128906 -104.082031 78.550781 -102.832031 78.6875 -101.75 C 78.832031 -100.664062 78.90625 -99.039062 78.90625 -96.875 L 78.90625 -12.4375 C 78.90625 -10.269531 78.832031 -8.644531 78.6875 -7.5625 C 78.550781 -6.476562 78.109375 -5.273438 77.359375 -3.953125 C 75.941406 -1.410156 71.957031 -0.140625 65.40625 -0.140625 C 58.851562 -0.140625 55.203125 -2.453125 54.453125 -7.078125 C 50.484375 -2.546875 44.96875 -0.28125 37.90625 -0.28125 C 29.414062 -0.28125 21.679688 -3.976562 14.703125 -11.375 C 7.734375 -18.78125 4.25 -27.410156 4.25 -37.265625 C 4.25 -47.117188 7.757812 -55.769531 14.78125 -63.21875 C 21.800781 -70.664062 29.507812 -74.390625 37.90625 -74.390625 C 44.875 -74.390625 50.296875 -72.03125 54.171875 -67.3125 L 54.171875 -97.015625 C 54.171875 -99.179688 54.238281 -100.804688 54.375 -101.890625 C 54.519531 -102.972656 54.941406 -104.195312 55.640625 -105.5625 Z M 32.65625 -28.703125 C 35.113281 -26.160156 38.085938 -24.890625 41.578125 -24.890625 C 45.066406 -24.890625 47.960938 -26.160156 50.265625 -28.703125 C 52.578125 -31.253906 53.734375 -34.0625 53.734375 -37.125 C 53.734375 -40.1875 52.625 -43.035156 50.40625 -45.671875 C 48.195312 -48.316406 45.207031 -49.640625 41.4375 -49.640625 C 37.664062 -49.640625 34.644531 -48.34375 32.375 -45.75 C 30.113281 -43.15625 28.984375 -40.300781 28.984375 -37.1875 C 28.984375 -34.082031 30.207031 -31.253906 32.65625 -28.703125 Z M 32.65625 -28.703125 "/></g></g></g><g clip-path="url(#c7a1f377be)"><g clip-path="url(#6e9c36b9e9)"><path fill="#f24405" d="M 176.6875 156.644531 L 246.191406 156.644531 L 246.191406 226.148438 L 176.6875 226.148438 Z M 176.6875 156.644531 " fill-opacity="1" fill-rule="nonzero"/></g></g><path fill="#ffffff" d="M 228.578125 191.332031 C 228.582031 187.308594 227.164062 183.414062 224.578125 180.335938 C 221.996094 177.253906 218.402344 175.1875 214.441406 174.488281 C 210.476562 173.796875 206.398438 174.519531 202.917969 176.539062 C 199.441406 178.558594 196.78125 181.742188 195.417969 185.519531 C 194.050781 189.304688 194.066406 193.445312 195.453125 197.226562 C 196.84375 200.996094 199.519531 204.164062 203.007812 206.15625 C 203.320312 203.359375 203.425781 200.542969 203.332031 197.730469 C 203.28125 195.804688 202.890625 194.695312 201.464844 193.671875 C 199.917969 192.570312 199.625 191.695312 199.746094 190.273438 L 200.535156 181.25 C 200.554688 180.980469 200.769531 180.757812 201.042969 180.734375 C 201.199219 180.722656 201.351562 180.78125 201.464844 180.890625 C 201.574219 181.003906 201.632812 181.152344 201.625 181.3125 L 201.097656 189.730469 C 201.085938 189.882812 201.140625 190.03125 201.242188 190.140625 C 201.347656 190.25 201.492188 190.308594 201.640625 190.308594 L 201.851562 190.308594 C 202.148438 190.308594 202.386719 190.078125 202.398438 189.785156 L 202.71875 181.257812 C 202.730469 180.964844 202.96875 180.730469 203.261719 180.730469 L 203.265625 180.730469 C 203.410156 180.730469 203.550781 180.792969 203.652344 180.898438 C 203.753906 180.996094 203.8125 181.140625 203.808594 181.285156 L 203.703125 189.757812 C 203.703125 189.90625 203.757812 190.042969 203.859375 190.148438 C 203.964844 190.25 204.101562 190.308594 204.246094 190.308594 L 204.464844 190.308594 C 204.605469 190.308594 204.746094 190.25 204.847656 190.148438 C 204.949219 190.042969 205.007812 189.90625 205.003906 189.757812 L 204.898438 181.285156 C 204.898438 181.140625 204.953125 180.996094 205.054688 180.898438 C 205.160156 180.792969 205.296875 180.730469 205.445312 180.730469 C 205.738281 180.730469 205.976562 180.964844 205.992188 181.257812 L 206.3125 189.785156 C 206.320312 190.078125 206.558594 190.308594 206.851562 190.308594 L 207.070312 190.308594 C 207.214844 190.308594 207.363281 190.25 207.464844 190.140625 C 207.570312 190.03125 207.621094 189.882812 207.609375 189.730469 L 207.082031 181.3125 C 207.074219 181.152344 207.132812 181.003906 207.242188 180.890625 C 207.351562 180.78125 207.507812 180.722656 207.664062 180.734375 C 207.9375 180.757812 208.152344 180.980469 208.167969 181.25 L 208.957031 190.273438 C 209.085938 191.695312 208.792969 192.570312 207.246094 193.675781 C 205.816406 194.695312 205.429688 195.804688 205.375 197.730469 C 205.265625 200.984375 205.421875 204.234375 205.859375 207.460938 C 209.082031 208.59375 212.578125 208.726562 215.878906 207.84375 C 216.289062 204.21875 216.757812 200.046875 216.804688 196.363281 C 216.816406 194.988281 215.980469 193.984375 215.1875 193.113281 C 213.972656 191.777344 212.53125 190.140625 212.53125 187.382812 C 212.53125 183.707031 214.929688 180.730469 217.898438 180.730469 C 220.859375 180.730469 223.261719 183.707031 223.261719 187.382812 C 223.261719 190.140625 221.816406 191.777344 220.605469 193.113281 C 219.8125 193.984375 218.972656 194.988281 218.992188 196.363281 C 219.027344 199.535156 219.378906 203.0625 219.738281 206.296875 C 222.414062 204.816406 224.648438 202.652344 226.203125 200.019531 C 227.757812 197.386719 228.578125 194.386719 228.578125 191.332031 " fill-opacity="1" fill-rule="nonzero"/><g clip-path="url(#6c5faa5585)"><path fill="#ffffff" d="M 211.492188 210.601562 C 209.699219 210.601562 207.917969 210.351562 206.191406 209.855469 C 206.554688 212.132812 206.765625 214.433594 206.824219 216.738281 C 209.679688 217.265625 212.601562 217.308594 215.472656 216.859375 C 215.414062 216.640625 215.367188 216.417969 215.335938 216.195312 C 215.160156 215.015625 215.34375 212.828125 215.628906 210.148438 C 214.265625 210.449219 212.878906 210.601562 211.492188 210.601562 " fill-opacity="1" fill-rule="nonzero"/></g><g clip-path="url(#a792694408)"><path fill="#ffffff" d="M 211.492188 165.496094 C 205.480469 165.496094 199.664062 167.589844 195.03125 171.417969 C 190.402344 175.246094 187.25 180.566406 186.121094 186.464844 C 184.988281 192.363281 185.945312 198.472656 188.835938 203.746094 C 191.71875 209.011719 196.347656 213.113281 201.929688 215.332031 C 202.070312 212.710938 202.402344 210.683594 202.710938 208.480469 C 198.847656 206.5 195.769531 203.28125 193.96875 199.335938 C 192.164062 195.390625 191.75 190.953125 192.78125 186.734375 C 193.816406 182.523438 196.238281 178.78125 199.664062 176.121094 C 203.085938 173.457031 207.3125 172.023438 211.652344 172.0625 C 215.992188 172.097656 220.1875 173.59375 223.570312 176.3125 C 226.949219 179.03125 229.3125 182.808594 230.28125 187.039062 C 231.242188 191.269531 230.757812 195.699219 228.890625 199.617188 C 227.023438 203.535156 223.890625 206.707031 219.996094 208.621094 C 220.316406 210.914062 220.484375 213.226562 220.515625 215.542969 C 226.191406 213.429688 230.941406 209.386719 233.941406 204.125 C 236.933594 198.859375 237.992188 192.707031 236.917969 186.75 C 235.839844 180.792969 232.707031 175.398438 228.058594 171.511719 C 223.414062 167.625 217.546875 165.496094 211.492188 165.496094 " fill-opacity="1" fill-rule="nonzero"/></g><g clip-path="url(#21c563b2b4)"><g clip-path="url(#8a080f0885)"><g clip-path="url(#d65119d8f4)"><path fill="#f24405" d="M 238.953125 141.894531 C 240.519531 140.609375 242.417969 139.523438 244.445312 139.609375 C 246.472656 139.691406 248.523438 141.34375 248.414062 143.367188 C 248.355469 144.46875 247.695312 145.464844 246.855469 146.175781 C 246.015625 146.882812 245 147.351562 244 147.808594 C 242.25 148.605469 240.503906 149.40625 238.753906 150.203125 C 237.144531 150.9375 235.238281 152.238281 233.515625 152.597656 C 231.519531 153.015625 232.753906 150.644531 233.167969 149.667969 C 233.765625 148.242188 234.53125 146.890625 235.4375 145.636719 C 236.417969 144.28125 237.59375 142.894531 238.953125 141.894531 Z M 240.550781 152.707031 C 239.667969 153.035156 237.296875 153.839844 236.902344 154.78125 C 236.433594 155.902344 239.472656 155.132812 240.164062 155.0625 C 241.769531 154.894531 243.375 154.722656 244.980469 154.554688 C 245.386719 154.511719 245.804688 154.46875 246.175781 154.300781 C 246.550781 154.128906 246.878906 153.8125 246.957031 153.410156 C 247.054688 152.882812 246.679688 152.351562 246.199219 152.109375 C 245.71875 151.871094 245.160156 151.855469 244.621094 151.882812 C 243.226562 151.964844 241.863281 152.222656 240.550781 152.707031 Z M 227.785156 143.273438 C 227.882812 144.96875 227.925781 147.238281 228.367188 149.121094 C 228.515625 149.761719 229.410156 149.800781 229.609375 149.171875 C 230.132812 147.53125 230.941406 145.144531 232.539062 142.414062 C 234.382812 139.257812 237.015625 136.4375 237.742188 132.855469 C 238.085938 131.152344 237.9375 129.179688 236.6875 127.976562 C 235.570312 126.902344 233.777344 126.722656 232.34375 127.3125 C 230.914062 127.90625 229.828125 129.160156 229.167969 130.558594 C 228.453125 132.074219 228.183594 133.757812 227.988281 135.414062 C 227.679688 138.023438 227.628906 140.652344 227.785156 143.273438 Z M 227.785156 143.273438 " fill-opacity="1" fill-rule="nonzero"/></g></g></g><path stroke-linecap="round" transform="matrix(1.206647, 0, 0, 1.206647, 63.976231, 250.67641)" fill="none" stroke-linejoin="miter" d="M 2.499453 2.498657 L 126.820619 2.498657 " stroke="#f24405" stroke-width="5" stroke-opacity="1" stroke-miterlimit="4"/><g fill="#f24405" fill-opacity="1"><g transform="translate(228.403348, 265.447691)"><g><path d="M 19.671875 -17.984375 L 16.171875 -18.375 L 15.796875 -10.921875 C 15.742188 -9.941406 15.859375 -9.226562 16.140625 -8.78125 C 16.429688 -8.332031 17 -8.085938 17.84375 -8.046875 C 18.6875 -8.003906 19.332031 -7.945312 19.78125 -7.875 C 20.226562 -7.800781 20.695312 -7.601562 21.1875 -7.28125 C 22 -6.769531 22.351562 -5.546875 22.25 -3.609375 C 22.132812 -1.328125 21.5625 0.0351562 20.53125 0.484375 C 19.976562 0.710938 19.492188 0.84375 19.078125 0.875 C 18.660156 0.90625 18.054688 0.90625 17.265625 0.875 C 13.503906 0.675781 10.691406 -0.316406 8.828125 -2.109375 C 6.972656 -3.898438 6.148438 -6.8125 6.359375 -10.84375 L 6.765625 -18.84375 C 6.066406 -18.78125 5.320312 -18.765625 4.53125 -18.796875 C 3.738281 -18.835938 3.09375 -19.175781 2.59375 -19.8125 C 2.101562 -20.457031 1.894531 -21.519531 1.96875 -23 C 2.039062 -24.476562 2.1875 -25.546875 2.40625 -26.203125 C 2.625 -26.867188 2.898438 -27.335938 3.234375 -27.609375 C 3.828125 -28.046875 4.5625 -28.242188 5.4375 -28.203125 L 7.21875 -27.890625 L 7.5 -33.453125 C 7.539062 -34.285156 7.59375 -34.898438 7.65625 -35.296875 C 7.726562 -35.691406 7.921875 -36.113281 8.234375 -36.5625 C 8.742188 -37.445312 10.15625 -37.832031 12.46875 -37.71875 C 14.925781 -37.59375 16.359375 -36.851562 16.765625 -35.5 C 16.910156 -34.90625 16.953125 -33.976562 16.890625 -32.71875 L 16.625 -27.421875 C 18.21875 -27.484375 19.414062 -27.492188 20.21875 -27.453125 C 21.03125 -27.421875 21.644531 -27.367188 22.0625 -27.296875 C 22.476562 -27.222656 22.945312 -27.023438 23.46875 -26.703125 C 24.382812 -26.179688 24.785156 -24.765625 24.671875 -22.453125 C 24.554688 -20.179688 24 -18.816406 23 -18.359375 C 22.4375 -18.140625 21.945312 -18.007812 21.53125 -17.96875 C 21.113281 -17.9375 20.492188 -17.941406 19.671875 -17.984375 Z M 19.671875 -17.984375 "/></g></g></g><g fill="#f24405" fill-opacity="1"><g transform="translate(253.605021, 266.697347)"><g><path d="M 21.609375 -28.1875 C 22.296875 -27.976562 22.863281 -27.609375 23.3125 -27.078125 C 23.757812 -26.546875 23.984375 -25.703125 23.984375 -24.546875 C 23.984375 -23.390625 23.640625 -22.128906 22.953125 -20.765625 C 22.265625 -19.398438 21.269531 -18.71875 19.96875 -18.71875 C 19.3125 -18.71875 18.6875 -18.859375 18.09375 -19.140625 C 17.5 -19.429688 16.710938 -19.578125 15.734375 -19.578125 C 14.765625 -19.578125 13.851562 -19.234375 13 -18.546875 C 12.15625 -17.867188 11.734375 -17.046875 11.734375 -16.078125 L 11.71875 -4.703125 C 11.707031 -3.867188 11.671875 -3.242188 11.609375 -2.828125 C 11.554688 -2.410156 11.390625 -1.929688 11.109375 -1.390625 C 10.566406 -0.453125 9.15625 0.015625 6.875 0.015625 C 5.144531 0.00390625 3.898438 -0.304688 3.140625 -0.921875 C 2.566406 -1.421875 2.242188 -2.195312 2.171875 -3.25 C 2.171875 -3.613281 2.175781 -4.140625 2.1875 -4.828125 L 2.21875 -23.828125 C 2.21875 -24.660156 2.242188 -25.285156 2.296875 -25.703125 C 2.347656 -26.117188 2.5 -26.578125 2.75 -27.078125 C 3.257812 -28.054688 4.671875 -28.539062 6.984375 -28.53125 C 9.148438 -28.53125 10.503906 -28.113281 11.046875 -27.28125 C 11.441406 -26.707031 11.640625 -26.113281 11.640625 -25.5 C 11.816406 -25.75 12.078125 -26.054688 12.421875 -26.421875 C 12.765625 -26.785156 13.492188 -27.269531 14.609375 -27.875 C 15.734375 -28.476562 16.71875 -28.78125 17.5625 -28.78125 C 18.414062 -28.78125 19.128906 -28.734375 19.703125 -28.640625 C 20.285156 -28.554688 20.921875 -28.40625 21.609375 -28.1875 Z M 21.609375 -28.1875 "/></g></g></g><g fill="#f24405" fill-opacity="1"><g transform="translate(276.5806, 270.454786)"><g><path d="M 2.875 -19.1875 C 2.914062 -19.863281 2.96875 -20.367188 3.03125 -20.703125 C 3.09375 -21.046875 3.238281 -21.429688 3.46875 -21.859375 C 3.914062 -22.597656 5.078125 -22.910156 6.953125 -22.796875 C 8.359375 -22.710938 9.34375 -22.40625 9.90625 -21.875 C 10.375 -21.4375 10.601562 -20.789062 10.59375 -19.9375 C 10.601562 -19.644531 10.59375 -19.21875 10.5625 -18.65625 L 9.671875 -3.28125 C 9.628906 -2.601562 9.578125 -2.097656 9.515625 -1.765625 C 9.453125 -1.441406 9.289062 -1.0625 9.03125 -0.625 C 8.601562 0.113281 7.453125 0.429688 5.578125 0.328125 C 3.734375 0.210938 2.628906 -0.25 2.265625 -1.0625 C 2.085938 -1.507812 1.984375 -1.894531 1.953125 -2.21875 C 1.929688 -2.539062 1.941406 -3.054688 1.984375 -3.765625 Z M 10.5625 -26.9375 C 10.320312 -26.519531 9.914062 -26.238281 9.34375 -26.09375 C 8.78125 -25.945312 8.039062 -25.898438 7.125 -25.953125 C 6.207031 -26.003906 5.472656 -26.132812 4.921875 -26.34375 C 4.367188 -26.5625 3.992188 -26.894531 3.796875 -27.34375 C 3.609375 -27.800781 3.503906 -28.195312 3.484375 -28.53125 C 3.460938 -28.863281 3.46875 -29.367188 3.5 -30.046875 C 3.539062 -30.722656 3.59375 -31.226562 3.65625 -31.5625 C 3.71875 -31.90625 3.863281 -32.269531 4.09375 -32.65625 C 4.550781 -33.425781 5.71875 -33.753906 7.59375 -33.640625 C 9.4375 -33.535156 10.523438 -33.078125 10.859375 -32.265625 C 11.066406 -31.828125 11.179688 -31.4375 11.203125 -31.09375 C 11.234375 -30.75 11.226562 -30.238281 11.1875 -29.5625 C 11.15625 -28.894531 11.101562 -28.394531 11.03125 -28.0625 C 10.96875 -27.726562 10.8125 -27.351562 10.5625 -26.9375 Z M 10.5625 -26.9375 "/></g></g></g><g fill="#f24405" fill-opacity="1"><g transform="translate(292.622994, 264.262713)"><g><path d="M 2.71875 7.234375 L 0.03125 -23.078125 C -0.0390625 -23.867188 -0.0664062 -24.457031 -0.046875 -24.84375 C -0.0234375 -25.238281 0.0820312 -25.6875 0.28125 -26.1875 C 0.675781 -27.164062 1.789062 -27.734375 3.625 -27.890625 C 5.46875 -28.054688 6.726562 -27.929688 7.40625 -27.515625 C 8.082031 -27.109375 8.515625 -26.460938 8.703125 -25.578125 C 9.867188 -27.484375 11.863281 -28.5625 14.6875 -28.8125 C 17.507812 -29.0625 20.300781 -27.96875 23.0625 -25.53125 C 25.820312 -23.09375 27.359375 -20.109375 27.671875 -16.578125 C 27.984375 -13.046875 27.003906 -9.835938 24.734375 -6.953125 C 22.460938 -4.078125 19.90625 -2.507812 17.0625 -2.25 C 14.226562 -2 12.097656 -2.609375 10.671875 -4.078125 L 11.609375 6.40625 C 11.679688 7.195312 11.707031 7.785156 11.6875 8.171875 C 11.664062 8.566406 11.546875 9.019531 11.328125 9.53125 C 11.117188 10.050781 10.710938 10.441406 10.109375 10.703125 C 9.503906 10.972656 8.664062 11.15625 7.59375 11.25 C 6.519531 11.34375 5.648438 11.3125 4.984375 11.15625 C 4.328125 11.007812 3.84375 10.707031 3.53125 10.25 C 3.226562 9.789062 3.035156 9.375 2.953125 9 C 2.867188 8.625 2.789062 8.035156 2.71875 7.234375 Z M 10.828125 -18.109375 C 10.117188 -17.109375 9.8125 -16.050781 9.90625 -14.9375 C 10.007812 -13.832031 10.507812 -12.859375 11.40625 -12.015625 C 12.3125 -11.179688 13.394531 -10.820312 14.65625 -10.9375 C 15.914062 -11.050781 16.941406 -11.59375 17.734375 -12.5625 C 18.535156 -13.539062 18.882812 -14.597656 18.78125 -15.734375 C 18.6875 -16.878906 18.179688 -17.875 17.265625 -18.71875 C 16.359375 -19.5625 15.238281 -19.921875 13.90625 -19.796875 C 12.570312 -19.679688 11.546875 -19.117188 10.828125 -18.109375 Z M 10.828125 -18.109375 "/></g></g></g></svg>