<?xml version="1.0" encoding="UTF-8"?>
<!DOCTYPE svg PUBLIC "-//W3C//DTD SVG 1.1//EN" "http://www.w3.org/Graphics/SVG/1.1/DTD/svg11.dtd">
<!-- Creator: CorelDRAW X5 -->
<svg xmlns="http://www.w3.org/2000/svg" xml:space="preserve" width="210mm" height="77.4688mm" style="shape-rendering:geometricPrecision; text-rendering:geometricPrecision; image-rendering:optimizeQuality; fill-rule:evenodd; clip-rule:evenodd"
viewBox="0 0 21000 7747"
 xmlns:xlink="http://www.w3.org/1999/xlink">
 <defs>
  <style type="text/css">
   <![CDATA[
    .fil1 {fill:#FEFEFE}
    .fil0 {fill:#EE4E2C;fill-rule:nonzero}
   ]]>
  </style>
 </defs>
 <g id="Layer_x0020_1">
  <metadata id="CorelCorpID_0Corel-Layer"/>
  <path class="fil0" d="M9594 7685l0 -3841 2337 0 0 748 -1550 0 0 794 1219 0 0 748 -1219 0 0 1550 -787 0zm9887 62c-355,0 -656,-139 -902,-416 -247,-278 -370,-609 -370,-995 0,-386 123,-717 370,-995 247,-278 548,-416 902,-416 170,0 332,39 463,108 139,69 239,154 316,254l0 -1658 740 0 0 4057 -740 0 0 -301c-69,100 -177,185 -316,254 -131,69 -285,108 -463,108zm-332 -879c123,139 293,208 494,208 201,0 370,-69 494,-208 123,-139 185,-316 185,-532 0,-216 -62,-393 -185,-532 -123,-139 -293,-208 -494,-208 -201,0 -370,69 -494,208 -123,139 -185,316 -185,532 -8,216 54,393 185,532zm-1643 470c-278,270 -617,409 -1010,409 -393,0 -733,-139 -1010,-409 -278,-270 -416,-609 -416,-1003 0,-393 139,-725 416,-1003 278,-278 617,-409 1010,-409 393,0 725,139 1010,409 278,278 416,609 416,1003 0,393 -139,733 -416,1003zm-1010 -285c193,0 347,-69 478,-201 131,-139 193,-308 193,-517 0,-208 -62,-378 -193,-517 -131,-139 -285,-201 -478,-201 -193,0 -355,69 -486,201 -131,139 -193,308 -193,517 0,208 62,378 193,517 131,131 293,201 486,201zm-2129 285c-278,270 -617,409 -1010,409 -393,0 -733,-139 -1010,-409 -278,-270 -416,-609 -416,-1003 0,-393 139,-725 416,-1003 278,-278 617,-409 1010,-409 393,0 733,139 1010,409 278,278 416,609 416,1003 0,393 -139,733 -416,1003zm-1003 -285c193,0 347,-69 478,-201 131,-139 193,-308 193,-517 0,-208 -62,-378 -193,-517 -131,-139 -285,-201 -478,-201 -193,0 -355,69 -486,201 -131,139 -193,308 -193,517 0,208 62,378 193,517 123,131 285,201 486,201z"/>
  <path class="fil0" d="M6409 35l-2707 0 -2707 0 -995 1458c0,0 208,4211 208,5622 0,231 285,632 509,632l2977 0 2977 0c224,0 509,-409 509,-632 0,-1419 208,-5622 208,-5622l-979 -1458zm-1111 1566l-1589 0 -1589 0 0 -717c0,-123 100,-231 231,-231l1357 0 1357 0c123,0 231,100 231,231l0 717z"/>
  <path class="fil1" d="M3000 5024c0,93 -501,632 -501,632l-77 2090 -563 0 -77 -2090c0,0 -501,-540 -501,-632 0,-69 0,-162 0,-162l54 -2267c0,-31 23,-54 54,-54 0,0 108,0 170,0l31 0c8,0 15,0 15,8 31,8 62,15 69,46 0,0 0,0 0,0l0 8 0 46c0,0 8,455 15,925 8,463 23,941 23,964 8,15 85,85 147,77 69,0 147,-85 147,-85l0 -440c0,0 0,-1411 0,-1481 0,-69 108,-77 108,-77l62 0c0,0 108,8 108,77 0,77 0,1481 0,1481l0 440c0,0 77,77 147,85 69,0 139,-69 147,-77 8,-54 39,-1889 39,-1889l0 -46 0 -8c0,0 0,0 0,0 8,-31 39,-46 69,-46 8,0 8,-8 15,-8l31 0c62,0 170,0 170,0 31,0 54,23 54,54l54 2267c-8,0 -8,93 -8,162z"/>
  <path class="fil1" d="M6131 4091c0,841 -540,1427 -771,1643 -62,62 -108,147 -108,247 -15,424 -69,1581 -77,1766l-501 0c-8,-185 -54,-1342 -77,-1766 -8,-93 -46,-185 -108,-247 -231,-216 -771,-810 -771,-1643 0,-1064 733,-1542 1203,-1542 478,0 1211,478 1211,1542z"/>
  <path class="fil0" d="M16365 1086c-248,0 -471,105 -623,272l0 -194c0,-175 -281,-176 -281,0l0 2293c0,176 281,176 281,0l0 -1021c153,167 376,272 623,272 460,0 834,-364 834,-811 0,-447 -374,-811 -834,-811zm0 1330l0 0c-294,0 -533,-233 -533,-518 0,-257 194,-472 448,-512 1,0 3,-1 4,-1 26,-4 53,-6 81,-6 217,0 405,127 487,310 0,1 1,2 1,2 29,63 44,133 44,206 0,286 -239,518 -532,518zm-2071 293c-460,0 -835,-364 -835,-811 0,-447 374,-811 835,-811 460,0 835,364 835,811 0,447 -374,811 -835,811zm0 -1330l0 0c-294,0 -533,232 -533,518 0,286 239,518 533,518 294,0 533,-232 533,-518 0,-286 -239,-518 -533,-518zm6706 502c-7,-373 -203,-710 -610,-785 -350,-64 -760,115 -909,434 -155,331 -90,786 216,1017 331,250 847,173 1186,-12 158,-86 16,-322 -142,-236 -215,117 -496,175 -737,97 -180,-58 -281,-210 -312,-379l1168 0c75,0 142,-63 140,-137zm-1298 -136l0 0c2,-10 5,-20 8,-30 67,-222 297,-351 530,-357 267,-7 417,172 464,387l-1001 0zm-571 139c-7,-373 -203,-710 -610,-785 -350,-64 -760,115 -909,434 -155,331 -90,786 216,1017 331,250 847,173 1186,-12 158,-86 16,-322 -142,-236 -215,117 -496,175 -737,97 -180,-58 -281,-210 -312,-379l1168 0c75,0 142,-63 140,-137zm-1298 -136l0 0c2,-10 5,-20 8,-30 67,-222 297,-351 530,-357 267,-7 417,172 464,387l-1001 0zm-4703 -126l0 948c0,179 -281,179 -281,0l0 -929c-10,-184 -166,-268 -171,-270 -200,-87 -563,-47 -779,228l0 972c0,179 -281,179 -281,0l0 -2435c0,-179 281,-178 281,0l0 1094c344,-230 782,-205 988,-64 0,0 247,135 243,457zm-1972 -1375c-275,-304 -853,-312 -1188,-100 -321,203 -451,663 -178,954 338,361 996,233 1263,692 193,332 -109,630 -449,637 -266,6 -592,-83 -776,-273 -123,-128 -322,64 -199,191 272,282 773,407 1162,335 363,-67 656,-407 596,-772 -74,-453 -529,-672 -939,-791 -299,-87 -725,-282 -440,-642 200,-253 725,-287 948,-41 119,131 317,-61 199,-191z"/>
 </g>
</svg>
